<mxfile host="Electron" modified="2024-03-11T13:26:30.630Z" agent="Mozilla/5.0 (Windows NT 10.0; Win64; x64) AppleWebKit/537.36 (KHTML, like Gecko) draw.io/22.1.11 Chrome/114.0.5735.289 Electron/25.9.8 Safari/537.36" etag="x6s-aa6xzgaifnPHRS6T" version="22.1.11" type="device">
  <diagram name="第 1 页" id="HMCeiJ_DVQun9JmNg5Pe">
    <mxGraphModel dx="1269" dy="852" grid="1" gridSize="10" guides="1" tooltips="1" connect="1" arrows="1" fold="1" page="1" pageScale="1" pageWidth="2000" pageHeight="10000" math="0" shadow="0">
      <root>
        <mxCell id="0" />
        <mxCell id="1" parent="0" />
        <mxCell id="_yz3aqSUdfqT3IX7iiut-1" value="«interface»&lt;br&gt;Subject" style="html=1;whiteSpace=wrap;" vertex="1" parent="1">
          <mxGeometry x="630" y="190" width="180" height="50" as="geometry" />
        </mxCell>
        <mxCell id="_yz3aqSUdfqT3IX7iiut-2" value="ConcreteSubject" style="html=1;whiteSpace=wrap;" vertex="1" parent="1">
          <mxGeometry x="620" y="370" width="180" height="50" as="geometry" />
        </mxCell>
        <mxCell id="_yz3aqSUdfqT3IX7iiut-3" value="" style="endArrow=block;dashed=1;endFill=0;endSize=12;html=1;rounded=0;entryX=0.5;entryY=1;entryDx=0;entryDy=0;" edge="1" parent="1" target="_yz3aqSUdfqT3IX7iiut-1">
          <mxGeometry width="160" relative="1" as="geometry">
            <mxPoint x="720" y="370" as="sourcePoint" />
            <mxPoint x="880" y="370" as="targetPoint" />
          </mxGeometry>
        </mxCell>
        <mxCell id="_yz3aqSUdfqT3IX7iiut-5" value="«interface»&lt;br&gt;Observer" style="html=1;whiteSpace=wrap;" vertex="1" parent="1">
          <mxGeometry x="920" y="190" width="180" height="50" as="geometry" />
        </mxCell>
        <mxCell id="_yz3aqSUdfqT3IX7iiut-6" value="ConcreteObserver" style="html=1;whiteSpace=wrap;" vertex="1" parent="1">
          <mxGeometry x="920" y="370" width="180" height="50" as="geometry" />
        </mxCell>
        <mxCell id="_yz3aqSUdfqT3IX7iiut-8" value="" style="endArrow=block;dashed=1;endFill=0;endSize=12;html=1;rounded=0;entryX=0.5;entryY=1;entryDx=0;entryDy=0;" edge="1" parent="1" source="_yz3aqSUdfqT3IX7iiut-6">
          <mxGeometry width="160" relative="1" as="geometry">
            <mxPoint x="985" y="370" as="sourcePoint" />
            <mxPoint x="1015" y="240" as="targetPoint" />
          </mxGeometry>
        </mxCell>
        <mxCell id="_yz3aqSUdfqT3IX7iiut-9" value="" style="endArrow=diamondThin;endFill=0;endSize=24;html=1;rounded=0;entryX=1;entryY=0.5;entryDx=0;entryDy=0;exitX=0;exitY=0.5;exitDx=0;exitDy=0;" edge="1" parent="1" source="_yz3aqSUdfqT3IX7iiut-6" target="_yz3aqSUdfqT3IX7iiut-2">
          <mxGeometry width="160" relative="1" as="geometry">
            <mxPoint x="910" y="395" as="sourcePoint" />
            <mxPoint x="900" y="560" as="targetPoint" />
          </mxGeometry>
        </mxCell>
      </root>
    </mxGraphModel>
  </diagram>
</mxfile>
